<?xml version="1.0" encoding="UTF-8" standalone="no"?>
<!-- Created with Inkscape (http://www.inkscape.org/) -->

<svg
   xmlns:osb="http://www.openswatchbook.org/uri/2009/osb"
   xmlns:dc="http://purl.org/dc/elements/1.1/"
   xmlns:cc="http://creativecommons.org/ns#"
   xmlns:rdf="http://www.w3.org/1999/02/22-rdf-syntax-ns#"
   xmlns:svg="http://www.w3.org/2000/svg"
   xmlns="http://www.w3.org/2000/svg"
   xmlns:xlink="http://www.w3.org/1999/xlink"
   xmlns:sodipodi="http://sodipodi.sourceforge.net/DTD/sodipodi-0.dtd"
   xmlns:inkscape="http://www.inkscape.org/namespaces/inkscape"
   id="svg2985"
   version="1.1"
   inkscape:version="0.48.4 r9939"
   width="1920"
   height="1520"
   sodipodi:docname="raphy_main.svg"
   inkscape:export-filename="/home/oleg/git/etc/Raphy/raphy_main.png"
   inkscape:export-xdpi="71.949997"
   inkscape:export-ydpi="71.949997">
  <metadata
     id="metadata2991">
    <rdf:RDF>
      <cc:Work
         rdf:about="">
        <dc:format>image/svg+xml</dc:format>
        <dc:type
           rdf:resource="http://purl.org/dc/dcmitype/StillImage" />
        <dc:title></dc:title>
      </cc:Work>
    </rdf:RDF>
  </metadata>
  <defs
     id="defs2989">
    <linearGradient
       id="linearGradient3793">
      <stop
         style="stop-color:#f6ca78;stop-opacity:1;"
         offset="0"
         id="stop3795" />
      <stop
         style="stop-color:#c89c4a;stop-opacity:0;"
         offset="1"
         id="stop3797" />
    </linearGradient>
    <linearGradient
       id="linearGradient3785">
      <stop
         style="stop-color:#fff5ca;stop-opacity:1;"
         offset="0"
         id="stop3787" />
      <stop
         style="stop-color:#ffe376;stop-opacity:1"
         offset="1"
         id="stop3789" />
    </linearGradient>
    <linearGradient
       id="linearGradient6462">
      <stop
         style="stop-color:#ffc34f;stop-opacity:1;"
         offset="0"
         id="stop6464" />
      <stop
         style="stop-color:#e1c09b;stop-opacity:1;"
         offset="1"
         id="stop6466" />
    </linearGradient>
    <linearGradient
       id="linearGradient6215">
      <stop
         id="stop6223"
         offset="0"
         style="stop-color:#f5bb0d;stop-opacity:1;" />
      <stop
         style="stop-color:#ffa900;stop-opacity:1;"
         offset="1"
         id="stop6219" />
    </linearGradient>
    <linearGradient
       id="linearGradient6195">
      <stop
         style="stop-color:#878787;stop-opacity:1;"
         offset="0"
         id="stop6197" />
      <stop
         style="stop-color:#ffffff;stop-opacity:1;"
         offset="1"
         id="stop6199" />
    </linearGradient>
    <linearGradient
       id="linearGradient6175"
       osb:paint="gradient">
      <stop
         style="stop-color:#777777;stop-opacity:1;"
         offset="0"
         id="stop6177" />
      <stop
         style="stop-color:#090a0a;stop-opacity:1;"
         offset="1"
         id="stop6179" />
    </linearGradient>
    <radialGradient
       inkscape:collect="always"
       xlink:href="#linearGradient6175"
       id="radialGradient6205"
       cx="1196.0543"
       cy="999.1936"
       fx="1196.0543"
       fy="999.1936"
       r="387.25379"
       gradientTransform="matrix(1.2089654,0.98166721,-0.63937468,0.78741743,365.51656,-994.58518)"
       gradientUnits="userSpaceOnUse" />
    <linearGradient
       inkscape:collect="always"
       xlink:href="#linearGradient6195"
       id="linearGradient6425"
       x1="887.64624"
       y1="889.36621"
       x2="1397.36"
       y2="895.03784"
       gradientUnits="userSpaceOnUse" />
    <linearGradient
       inkscape:collect="always"
       xlink:href="#linearGradient6195-2"
       id="linearGradient6425-0"
       x1="887.64624"
       y1="889.36621"
       x2="1503.7032"
       y2="889.36621"
       gradientUnits="userSpaceOnUse" />
    <linearGradient
       id="linearGradient6195-2">
      <stop
         style="stop-color:#767070;stop-opacity:1;"
         offset="0"
         id="stop6197-2" />
      <stop
         style="stop-color:#ffffff;stop-opacity:1;"
         offset="1"
         id="stop6199-9" />
    </linearGradient>
    <linearGradient
       gradientTransform="translate(-8.2014406,44.397349)"
       y2="889.36621"
       x2="1503.7032"
       y1="889.36621"
       x1="887.64624"
       gradientUnits="userSpaceOnUse"
       id="linearGradient3027"
       xlink:href="#linearGradient6195-2"
       inkscape:collect="always" />
    <linearGradient
       inkscape:collect="always"
       xlink:href="#linearGradient6195-1"
       id="linearGradient6425-1"
       x1="887.64624"
       y1="889.36621"
       x2="1503.7032"
       y2="889.36621"
       gradientUnits="userSpaceOnUse" />
    <linearGradient
       id="linearGradient6195-1">
      <stop
         style="stop-color:#767070;stop-opacity:1;"
         offset="0"
         id="stop6197-6" />
      <stop
         style="stop-color:#ffffff;stop-opacity:1;"
         offset="1"
         id="stop6199-1" />
    </linearGradient>
    <linearGradient
       gradientTransform="translate(1.207785,2.4625503)"
       y2="889.36621"
       x2="1503.7032"
       y1="889.36621"
       x1="887.64624"
       gradientUnits="userSpaceOnUse"
       id="linearGradient3095"
       xlink:href="#linearGradient6195-1"
       inkscape:collect="always" />
    <radialGradient
       inkscape:collect="always"
       xlink:href="#linearGradient6175-8"
       id="radialGradient6205-1"
       cx="1166.9741"
       cy="888.33948"
       fx="1166.9741"
       fy="888.33948"
       r="387.25378"
       gradientTransform="matrix(1,0,0,0.63217913,0,326.74981)"
       gradientUnits="userSpaceOnUse" />
    <linearGradient
       id="linearGradient6175-8"
       osb:paint="gradient">
      <stop
         style="stop-color:#8c8c8c;stop-opacity:1;"
         offset="0"
         id="stop6177-5" />
      <stop
         style="stop-color:#090a0a;stop-opacity:1;"
         offset="1"
         id="stop6179-0" />
    </linearGradient>
    <linearGradient
       inkscape:collect="always"
       xlink:href="#linearGradient6175-8"
       id="linearGradient3158"
       x1="1344.2548"
       y1="822.68188"
       x2="1479.1064"
       y2="912.91718"
       gradientUnits="userSpaceOnUse" />
    <radialGradient
       inkscape:collect="always"
       xlink:href="#linearGradient3785"
       id="radialGradient3791"
       cx="1212.2772"
       cy="846.58081"
       fx="1212.2772"
       fy="846.58081"
       r="101.12808"
       gradientTransform="matrix(-0.56468921,0.73215144,-0.50505197,-0.38953334,2275.6706,284.08468)"
       gradientUnits="userSpaceOnUse" />
    <linearGradient
       inkscape:collect="always"
       xlink:href="#linearGradient3793"
       id="linearGradient3803"
       x1="1125.8782"
       y1="787.63831"
       x2="996.15424"
       y2="841.34692"
       gradientUnits="userSpaceOnUse" />
    <radialGradient
       inkscape:collect="always"
       xlink:href="#linearGradient6175-9"
       id="radialGradient6205-7"
       cx="1196.0543"
       cy="999.1936"
       fx="1196.0543"
       fy="999.1936"
       r="387.25378"
       gradientTransform="matrix(1.2089654,0.98166721,-0.63937468,0.78741743,365.51656,-994.58518)"
       gradientUnits="userSpaceOnUse" />
    <linearGradient
       id="linearGradient6175-9"
       osb:paint="gradient">
      <stop
         style="stop-color:#777777;stop-opacity:1;"
         offset="0"
         id="stop6177-9" />
      <stop
         style="stop-color:#090a0a;stop-opacity:1;"
         offset="1"
         id="stop6179-9" />
    </linearGradient>
    <linearGradient
       inkscape:collect="always"
       xlink:href="#linearGradient6195-8"
       id="linearGradient6425-7"
       x1="887.64624"
       y1="889.36621"
       x2="1503.7032"
       y2="889.36621"
       gradientUnits="userSpaceOnUse" />
    <linearGradient
       id="linearGradient6195-8">
      <stop
         style="stop-color:#a9a9a9;stop-opacity:1;"
         offset="0"
         id="stop6197-22" />
      <stop
         style="stop-color:#ffffff;stop-opacity:1;"
         offset="1"
         id="stop6199-94" />
    </linearGradient>
    <linearGradient
       inkscape:collect="always"
       xlink:href="#linearGradient6195"
       id="linearGradient4013"
       x1="1555.0544"
       y1="682.8172"
       x2="1167.0428"
       y2="1054.7871"
       gradientUnits="userSpaceOnUse" />
    <radialGradient
       inkscape:collect="always"
       xlink:href="#linearGradient6175-9"
       id="radialGradient4021"
       gradientUnits="userSpaceOnUse"
       gradientTransform="matrix(-1.546283,0.18513978,0.12058432,1.0071175,2913.5544,-316.37785)"
       cx="1196.0543"
       cy="999.1936"
       fx="1196.0543"
       fy="999.1936"
       r="387.25378" />
    <radialGradient
       inkscape:collect="always"
       xlink:href="#linearGradient6175-9"
       id="radialGradient4042"
       gradientUnits="userSpaceOnUse"
       gradientTransform="matrix(-1.546283,0.18513978,0.12058432,1.0071175,2913.5544,-316.37785)"
       cx="1196.0543"
       cy="999.1936"
       fx="1196.0543"
       fy="999.1936"
       r="387.25378" />
    <linearGradient
       inkscape:collect="always"
       xlink:href="#linearGradient6195"
       id="linearGradient4044"
       gradientUnits="userSpaceOnUse"
       x1="1555.0544"
       y1="682.8172"
       x2="1167.0428"
       y2="1054.7871" />
    <radialGradient
       inkscape:collect="always"
       xlink:href="#linearGradient6175"
       id="radialGradient4046"
       gradientUnits="userSpaceOnUse"
       gradientTransform="matrix(1.2089654,0.98166721,-0.63937468,0.78741743,365.51656,-994.58518)"
       cx="1196.0543"
       cy="999.1936"
       fx="1196.0543"
       fy="999.1936"
       r="387.25379" />
    <linearGradient
       inkscape:collect="always"
       xlink:href="#linearGradient6195"
       id="linearGradient4048"
       gradientUnits="userSpaceOnUse"
       x1="887.64624"
       y1="889.36621"
       x2="1397.36"
       y2="895.03784" />
    <radialGradient
       inkscape:collect="always"
       xlink:href="#linearGradient3785"
       id="radialGradient4050"
       gradientUnits="userSpaceOnUse"
       gradientTransform="matrix(-0.56468921,0.73215144,-0.50505197,-0.38953334,2275.6706,284.08468)"
       cx="1212.2772"
       cy="846.58081"
       fx="1212.2772"
       fy="846.58081"
       r="101.12808" />
    <linearGradient
       inkscape:collect="always"
       xlink:href="#linearGradient3793"
       id="linearGradient4052"
       gradientUnits="userSpaceOnUse"
       x1="1125.8782"
       y1="787.63831"
       x2="996.15424"
       y2="841.34692" />
  </defs>
  <sodipodi:namedview
     pagecolor="#ffffff"
     bordercolor="#666666"
     borderopacity="1"
     objecttolerance="10"
     gridtolerance="10"
     guidetolerance="10"
     inkscape:pageopacity="0"
     inkscape:pageshadow="2"
     inkscape:window-width="1366"
     inkscape:window-height="706"
     id="namedview2987"
     showgrid="false"
     inkscape:zoom="0.17631579"
     inkscape:cx="-109.34368"
     inkscape:cy="832.73409"
     inkscape:window-x="0"
     inkscape:window-y="27"
     inkscape:window-maximized="1"
     inkscape:current-layer="svg2985"
     showguides="true"
     inkscape:guide-bbox="true" />
  <g
     id="g4029"
     transform="matrix(1.6973569,0,0,1.6973569,-1017.3255,-836.37972)">
    <path
       inkscape:connector-curvature="0"
       id="path4025"
       d="m 1202.0336,666.77238 c 17.3694,41.11941 15.597,75.14926 15.597,75.14926 l -29.4216,17.72388 -53.5262,-3.89925 -12.7612,-30.48508 3.5448,-23.04104 7.0896,-22.68657 18.4328,-7.44403 21.2687,-3.89926 z"
       style="fill:#ffffff;stroke:#000000;stroke-width:1px;stroke-linecap:butt;stroke-linejoin:miter;stroke-opacity:1" />
    <g
       transform="matrix(0.9328137,0,0,0.90976479,88.181802,82.600905)"
       id="g3965">
      <path
         inkscape:connector-curvature="0"
         id="path4291-5"
         d="m 1339.9762,1004.1822 10.2214,-4.0108 c 60.0757,-23.57348 132.8187,-25.65833 181.0826,-68.49977 22.6755,-22.27059 26.712,-52.66867 8.7147,-59.62695 -9.0429,-3.34835 -34.1387,3.57439 -34.5858,1.59954 21.8566,-21.45855 25.0121,-14.96069 38.2882,-38.92098 7.4127,-12.48309 -0.114,-29.55226 -12.7715,-33.89556 -7.2282,-2.07728 -21.7212,-1.81976 -35.1823,0.62509 -9.8807,1.79458 -14.9241,1.68611 -15.3805,-0.33067 -0.1016,-0.44856 4.9415,-8.90343 11.2068,-18.78851 4.1944,-8.47365 10.0945,-15.31525 8.8048,-24.78056 -0.5458,-4.00548 -1.7531,-5.39069 -5.2901,-7.60753 -22.3938,-11.1212 -60.9447,20.38202 -60.9447,20.38202 0,0 7.562,-30.6479 -15.3296,-32.60757 -40.5669,3.05494 -45.7489,44.94882 -72.8906,60.94814 -11.5202,56.98639 -5.9434,205.51411 -5.9434,205.51411 z"
         style="fill:url(#radialGradient4042);fill-opacity:1;stroke:none"
         sodipodi:nodetypes="cscccccscccccccc"
         inkscape:transform-center-x="-18.047054" />
      <path
         inkscape:connector-curvature="0"
         id="path4293-1"
         d="m 1339.4481,990.03804 c 35.6967,-5.15442 82.9697,-16.00218 117.6415,-28.3463 4.707,-1.64533 8.8829,-3.05505 9.2796,-3.1327 19.091,-10.08736 50.7246,-21.70842 67.0935,-42.5197 6.3678,-8.09593 14.9668,-20.28038 9.926,-29.26277 -5.0198,-8.94497 -19.7667,-6.62855 -30.0233,-6.74517 -10.4733,-0.11908 -30.2568,6.52945 -30.8064,6.18884 19.4315,-17.41276 13.7733,-11.41928 34.1306,-31.76976 2.1597,-2.22045 5.1331,-5.20379 6.6077,-6.62966 4.4398,-4.29299 12.6193,-18.24346 13.3434,-22.7574 2.1353,-13.31206 -7.9441,-20.00614 -27.7409,-18.42373 -7.6141,0.60857 -14.5573,2.0892 -40.704,8.67957 -7.9528,2.0046 -14.7959,3.43623 -15.2071,3.18143 -0.9509,-0.58937 -0.1264,-1.84635 3.5654,-5.43736 1.6256,-1.58083 4.5775,-5.04549 6.56,-7.69922 1.9825,-2.65369 5.5566,-7.15775 7.9423,-10.009 9.0997,-10.87508 19.0973,-30.63188 17.9575,-35.48715 -0.4448,-1.89501 -1.1546,-2.37437 -5.6754,-3.83316 -2.8417,-0.91697 -6.3036,-1.66177 -7.6931,-1.65512 -3.9292,0.0188 -16.9644,6.40901 -32.6429,16.00223 -7.8675,4.81394 -11.3077,5.87385 -11.9336,5.72523 -4.2139,-10.77578 2.9024,-28.27874 -9.2244,-32.71188 -19.2283,-6.13778 -37.6522,21.26716 -49.0117,35.55903 -12.5389,15.60187 -27.3275,33.81318 -39.7174,45.03667 -12.3898,11.22349 -20.6187,15.54099 -20.6187,15.54099 0,0 5.139,2.24267 7.6143,1.49291 31.5276,-9.54888 62.7961,-57.71838 70.1316,-69.62789 2.3314,-3.6584 17.2558,-23.53583 26.4535,-19.22448 6.7073,7.18432 4.0997,17.55357 3.5554,26.42439 -0.2731,4.45172 -3.3921,12.94314 -3.3921,12.94314 l 26.5709,-10.13992 c 15.2065,-5.80307 22.1365,-12.3292 25.9476,-11.47939 6.4806,1.44508 6.5623,1.01603 -2.8445,14.91535 -4.705,6.95175 -11.283,15.71326 -14.6178,19.47002 -16.6332,18.73754 -24.1814,28.14687 -23.8188,29.6919 0.2728,1.16187 10.3166,-0.82002 39.373,-7.76974 30.0083,-7.17732 40.7303,-9.27395 46.4778,-9.08844 11.9019,0.38416 14.6855,-0.24441 10.5627,9.9245 -25.6969,36.21167 -32.6398,38.42217 -50.8886,55.74127 -6.007,5.70095 -17.8013,14.83859 -19.1985,15.76962 -2.0587,1.37184 20.2411,-4.602 30.5394,-5.6745 14.92,-1.55381 36.0016,-13.08215 44.9892,-1.07203 4.5669,6.10273 -2.0933,15.92085 -6.9704,21.77867 -19.2944,23.17457 -51.8773,31.19187 -79.7367,42.73283 -39.1332,16.21125 -85.9633,17.75281 -121.6404,36.7634 8.3687,-0.0901 7.0706,-3.55519 17.8438,-3.06552 z"
         style="fill:url(#linearGradient4044);fill-opacity:1"
         sodipodi:nodetypes="cccaaaccssssssssssssccczcaccacssssssscasaaaacc" />
    </g>
    <path
       sodipodi:nodetypes="sscsscccssccsscscsscccccscccccsssssscscsscccsssssssssccscssssssscssssscasccssssssccsssssssssssscccssssscsssssscssccssssssscacscccsccccccscsscacacccaaccccccsssccccssscccccssccsccsaaacczaccasaascccccccssssaacssccsssc"
       style="fill:url(#radialGradient4046);fill-opacity:1;stroke:none"
       d="m 1117.1492,1131.583 c -8.25,-0.9635 -21.075,-2.9239 -28.5,-4.3564 -43.4475,-8.3822 -45.0428,-8.7949 -60.7768,-15.7198 -2.3522,-1.0353 -5.1279,-1.8823 -6.1682,-1.8823 -3.3543,0 -6.0576,-1.4121 -6.0576,-3.7027 0,-3.8678 6.0188,-6.7316 8.5526,-4.437 0.5225,0.4732 3.2,1.6007 5.95,2.5057 12.7885,4.2084 18.0695,5.81 21.8805,6.6361 2.2657,0.4911 6.8195,1.612 10.1195,2.4908 3.3,0.8788 8.25,2.0044 11,2.5013 2.75,0.4969 8.6,1.6311 13,2.5204 4.4,0.8894 10.475,1.9917 13.5,2.4497 3.025,0.4581 11.8,1.8491 19.5,3.0912 13.1754,2.1253 17.0628,2.2636 66,2.3486 37.0399,0.064 53.389,-0.7106 56.0601,-1.5416 4.2148,-1.3112 49.7249,-5.7117 44.4125,-4.2197 l -27.5163,11.2938 -28.7198,1.1802 c -78.1246,3.2105 -97.6471,0.5456 -112.2365,-1.1583 z m 150.2417,-6.8597 -6.9541,-3.0335 6.3291,-0.4387 c 6.5934,-1.0286 13.6871,-1.8336 19.39,-4.2607 29.3657,-41.5505 27.4369,-86.5289 22.9554,-86.3659 -1.1342,0 -2.4897,-0.3951 -3.0122,-0.878 -0.5225,-0.4829 -3.65,-2.3564 -6.95,-4.1633 -3.3,-1.807 -7.575,-4.18 -9.5,-5.2734 -6.1914,-3.5166 -16.8707,-8.6651 -22.2588,-10.731 -2.8827,-1.1052 -6.1412,-2.4005 -7.2412,-2.8785 -3.4548,-1.5011 -15.8253,-5.3166 -20,-6.1687 -2.2,-0.449 -7.375,-1.52863 -11.5,-2.3991 -13.8561,-2.92397 -29.3306,-4.00799 -57.2144,-4.00799 -33.2537,0 -33.201,-0.0168 -26.2378,8.34919 2.4488,2.9421 4.4523,5.6488 4.4523,6.0149 0,0.366 -15.6375,0.5262 -34.75,0.356 -50.5769,-0.4506 -73.9439,1.8817 -90.25,9.0078 -9.3641,4.0922 -10.8392,4.9846 -16.331,9.8793 -8.45169,7.533 -11.57259,15.4961 -9.57373,24.4279 0.68388,3.0559 1.61723,5.7872 2.07403,6.0696 0.4569,0.2823 0.8307,1.181 0.8307,1.997 0,2.4388 7.2046,11.4154 15.3952,19.1818 4.2248,4.006 7.3963,7.7448 7.0479,8.3086 -0.6827,1.1045 -4.4743,0.5652 -10.9431,-1.5567 -2.2,-0.7216 -6.475,-1.8413 -9.5,-2.4883 -6.07102,-1.2984 -13.00514,-3.8002 -22,-7.9373 -5.9509,-2.7371 -19,-11.4533 -19,-12.6911 0,-0.6456 0.675,-1.734 1.5,-2.4187 0.825,-0.6847 1.5,-1.61 1.5,-2.0563 0,-0.4463 3.825,-6.907 8.5,-14.3572 4.675,-7.4502 8.5,-14.005 8.5,-14.5662 0,-0.5612 0.36033,-1.0203 0.80073,-1.0203 0.44041,0 1.77634,-1.9125 2.96874,-4.25 1.1924,-2.3375 3.99088,-7.4 6.21885,-11.25 6.25003,-10.8002 15.76088,-30.61995 18.95468,-39.49999 0.6924,-1.925 1.6313,-4.4 2.0865,-5.5 0.8036,-1.94176 2.5731,-7.80972 4.8248,-16 2.8349,-10.3112 3.958,-26.11373 2.1023,-29.58099 -1.1634,-2.17394 -6.6733,-4.9005 -14.9566,-7.40132 -6.73183,-2.0324 -6.79632,-2.05986 -21,-8.94207 -19.0858,-9.24778 -40.26616,-25.85139 -55.20973,-43.27978 -11.78539,-13.74506 -14.20726,-17.26281 -22.92317,-33.29584 -0.44849,-0.825 -1.95206,-4.90883 -3.34127,-9.07518 -1.99287,-5.9768 -2.52583,-9.58142 -2.52583,-17.08333 0,-5.22949 0.30098,-9.80914 0.66885,-10.17701 0.36787,-0.36786 1.38037,-0.0391 2.25,0.73069 0.86963,0.76975 3.46294,2.45823 5.76291,3.75218 2.29997,1.29395 9.67436,7.30264 16.38753,13.35265 19.28946,17.38393 29.70423,25.28464 43.43677,32.95144 5.59064,3.12122 7.62656,2.32678 5.57212,-2.17431 -0.69716,-1.52742 -1.93117,-4.80213 -2.74225,-7.27713 -0.81107,-2.475 -2.53353,-6.75 -3.82769,-9.5 -16.28711,-36.20804 -31.42699,-64.86321 -39.0754,-99.74223 -0.87967,-4.01157 -1.68997,-6.62818 -0.71848,-12.2997 1.85259,-10.81534 3.98949,-11.67071 14.30839,-5.72744 l -10.42701,-14.73063 c -4.2817,0 -5.68332,0.4871 -8.31309,2.88902 -4.84324,4.42362 -6.28265,8.97533 -6.28265,19.86708 0,5.23152 0.41096,11.13907 0.91325,13.12788 0.50229,1.98881 1.45809,6.09102 2.124,9.11602 1.57815,7.16894 11.94497,39.21948 13.08365,40.45 0.48351,0.5225 0.8791,1.55581 0.8791,2.29624 0,0.74043 1.575,4.7103 3.5,8.82193 2.93995,6.55687 5.19431,12.47128 8,18.83296 1.5502,3.51495 1.9624,6.59887 0.88202,6.59887 -0.64663,0 -4.41872,-3.16859 -12.97467,-10.89883 -19.47478,-17.59532 -26.34837,-22.10117 -33.71494,-22.10117 -5.70851,0 -9.02492,2.59278 -11.09777,8.67628 -1.77909,5.22134 -2.13082,17.97959 -0.62726,22.75272 0.53205,1.68905 1.74711,5.771 2.70012,9.071 0.95301,3.3 2.61023,7.575 3.68271,9.5 2.12315,3.81084 12.74275,20.19007 13.61551,21 0.29634,0.275 3.10319,3.6731 6.23746,7.55133 13.07045,16.17292 33.87321,34.03746 54.5808,46.8717 12.46391,7.72494 35.34562,19.57697 37.79562,19.57697 2.6475,0 3.4492,4.56397 2.4678,14.04987 -0.5111,4.9397 -1.3811,10.43677 -1.9335,12.2157 -0.5523,1.77894 -1.7764,5.93443 -2.7201,9.23443 -0.9438,3.3 -2.041,6.675 -2.4382,7.5 -0.3973,0.825 -1.183,2.625 -1.7461,4 -2.61272,6.3797 -10.31592,21.51446 -16.03268,31.49999 -8.56949,14.9684 -7.68191,13.511 -16.7477,27.5 -10.91181,16.8375 -16.42912,27.4027 -16.42912,31.4604 0,4.7341 5.33688,9.1527 19.14249,15.8489 13.04272,6.3261 19.20508,9.1567 23.10751,10.6142 1.71904,0.642 2.75,1.7639 2.75,2.9927 0,5.0087 -8.2799,4.648 -18.71915,-0.8156 -4.27947,-2.2397 -10.34186,-5.001 -13.47198,-6.1362 -4.02677,-1.4604 -7.3057,-3.6786 -11.21205,-7.585 -10.4141,-10.4141 -10.99152,-14.9096 -3.679,-28.6433 10.06978,-18.912 11.49267,-21.4141 16.6255,-29.2361 2.88731,-4.4 5.54563,-8.9938 5.90737,-10.2084 0.36173,-1.2147 3.7784,-7.2897 7.59259,-13.50002 9.81683,-15.984 14.67514,-26.28215 18.84653,-39.94888 2.95269,-9.6739 3.53479,-12.94083 3.12009,-17.50973 l -0.5099,-5.61689 -7.5,-3.98874 c -4.125,-2.1938 -10.875,-5.67733 -15,-7.74118 -4.125,-2.06384 -9.3,-5.19978 -11.5,-6.96875 -2.2,-1.76897 -5.8,-4.13284 -8,-5.25305 -2.2,-1.12022 -5.35,-3.11219 -7,-4.42661 -18.3188,-14.59313 -24.17059,-19.15695 -26.89175,-20.97295 -3.93684,-2.62729 -12.60825,-12.45732 -12.60825,-14.29289 0,-0.49788 -0.38047,-1.05523 -0.84548,-1.23857 -14.8717,-16.28455 -26.11951,-37.75215 -29.33836,-59.68623 -1.51618,-10.33166 -2.73622,-25.44928 5.15903,-30.89923 7.23033,-4.89455 3.84124,-7.03382 21.9785,-3.20168 9.43467,1.99341 22.28834,21.0128 23.7201,19.58104 -7.03477,-29.8109 -25.04009,-58.00702 -23.48332,-85.35529 0.39179,-14.51281 15.86542,-24.93267 28.88792,-21.85202 7.22158,2.10007 19.34152,10.05123 29.42161,19.30174 7.39894,6.79002 11.72224,9.38944 13.18442,7.92725 0.32521,-0.3252 0.57149,-10.16675 0.5473,-21.8701 0.9741,-9.40463 -0.36523,-18.33909 5.77619,-25.6561 2.59887,-3.09636 4.3591,-3.62369 8.53341,-3.61122 24.87348,2.5435 22.79638,19.98749 36.06348,32.57551 3.2572,1.03217 9.9783,-10.02616 11.6337,-11.89813 7.7821,-9.06019 15.1007,-10.48432 25.9816,-5.05578 3.4539,1.7232 7.0807,4.0857 8.0596,5.25 3.9462,4.69397 10.2863,18.76974 11.3133,25.11691 1.2135,7.49946 3.211,22.25351 2.3006,34.7093 -0.9103,12.4558 3.8796,38.96015 4.8045,40.10239 2.5166,3.10792 17.7792,-20.7772 22.1387,-33.40384 2.8043,-8.12203 3.5917,-20.30182 2.0499,-25.69587 -4.1328,-25.47899 2.8693,-47.30563 19.0232,-61.36511 27.79,-24.18687 78.3106,-24.50828 109.0737,-17.84687 13.4769,3.74334 28.4721,9.8509 38.4661,17 35.1463,28.19092 48.472,54.77066 60.4766,95.86385 2.4675,8.60526 5.3178,17.22542 6.1768,26.13615 6.0128,62.37453 0.7009,125.71602 -7.4935,187.84159 -4.7286,35.8499 -13.177,75.3265 -23.9296,105.809 -8.1761,19.165 -27.3515,44.2075 -45.918,47.1869 -11.7945,1.2671 -5.0183,1.2914 -9.0205,-1.7389 z M 1155.5062,740.09701 c 4.3514,-4.57273 9.1132,-12.72072 10.6495,-18.2225 0.9638,-3.4513 2.1628,-2.70901 4.0384,2.5 3.4867,9.68327 7.3601,16.81013 10.3264,19 4.5438,3.35445 11.9066,3.1314 16.302,-0.49386 4.3219,-3.56468 5.1608,-4.67463 8.5068,-11.25614 5.8232,-14.77136 3.2164,-42.11645 -8.9715,-52.3826 -3.7494,-3.07235 -5.1587,-3.6174 -9.3534,-3.6174 -6.7667,0.78106 -9.8615,3.55322 -13.3552,9.30772 0,1.22271 -4.9713,8.69228 -5.7851,8.69228 -0.418,0 -1.6334,-1.6875 -2.7008,-3.75 -5.7831,-11.17439 -11.4705,-14.64204 -20.0673,-12.23511 -3.6482,1.02143 -5.5023,2.37931 -8.6,6.29812 -10.5817,16.69114 -11.3584,30.89042 -6.8686,49.79937 6.4044,13.28691 18.107,14.47832 25.8788,6.36012 z m 27.893,0.95552 c -3.3188,-3.06443 -5.1141,-10.31757 -5.6232,-14.28983 -1.3859,-6.07815 1.1263,-9.95579 2.8732,-12.60301 1.4213,-2.15389 3.6729,-3.79565 6.29,-2.08084 5.1302,3.36143 7.1306,7.55701 7.1716,15.04138 -0.01,7.65515 -3.8845,17.59474 -10.7116,13.9323 z m -46.5154,-3.42408 c -5.8788,-8.09197 -2.5408,-27.27512 6.1298,-26.80585 3.8308,0.27965 4.3494,0.73911 5.9004,3.91053 6.2252,12.72887 -3.3607,30.97218 -12.0302,22.89532 z M 871.3869,1053.1953 c -2.79949,-0.6037 -5.44842,-3.3486 -5.98781,-6.1612 -0.53998,-2.8157 0.4577,-5.0286 3.28731,-7.948 7.98161,-10.817 88.31384,-24.524 88.35552,-22.9731 -3.06,1.9054 -2.99164,2.0509 -4.18068,2.8567 -1.18904,0.8058 -38.75909,17.0553 -58.33401,25.1192 -7.66437,3.1573 -15.03733,10.8536 -23.14033,9.1064 z m -52.7377,-43.1992 c -6.96307,-1.2312 -9.98518,-2.8183 -11.91097,-7.0019 -0.92238,-2.0038 -0.0155,-4.64958 1.16226,-6.51475 1.57131,-2.48852 4.46008,-4.01543 7.18116,-5.13681 14.88064,-6.13244 31.56614,-7.67669 47.66077,-7.73399 32.01302,-0.11398 70.80104,4.9627 94.90678,14.70785 l 5.5,2.2235 -6.56634,0.042 c -3.61149,0.023 -9.01149,0.488 -12,1.0329 -5.51635,1.0057 -20.50883,2.6076 -35.93366,3.8394 -28.31431,2.5553 -62.44605,7.8222 -90,4.5416 z m 139.75327,-33.64983 c -3.76317,-1.29736 -14.67597,-2.32422 -41.75327,-6.70621 -6.325,-1.02359 -19.6,-3.26863 -29.5,-4.98896 -22.35893,-3.88537 -64.8819,-11.16948 -85.6351,-14.66913 -14.13932,-2.38436 -15.93796,-2.91963 -18.80079,-5.59518 -2.80521,-2.6217 -3.27301,-4.93074 -2.86489,-7.61044 0.48328,-3.17322 3.10508,-6.05389 5.92154,-7.59351 5.43397,-2.97049 12.309,-1.86078 18.5,-1.70781 47.99268,5.54636 81.47531,18.0277 135.74215,38.34649 4.98523,1.86659 13.42034,7.10451 15.75784,8.29239 2.3375,1.18787 5.87925,3.20987 5.87925,3.20987 0,0 -2.23769,-0.62974 -3.24673,-0.97751 z M 1149.8818,766.00068 c 3.6328,-6.81581 10.0361,-11.87749 15.1713,-11.87749 10.05,0 5.9619,9.94629 -5.4039,13.08241 -3.025,0.83468 -7.5717,2.48371 -9.0316,3.28157 -4.1154,2.24921 -4.1211,1.86496 -0.7358,-4.48649 z"
       id="path4291"
       inkscape:connector-curvature="0" />
    <path
       sodipodi:nodetypes="zcaaz"
       inkscape:connector-curvature="0"
       id="path4430"
       d="m 1134.4172,758.22762 c -2.1347,2.09036 -9.2165,7.7985 -9.2165,7.7985 0,0 5.4376,-6.8593 8.8003,-9.60777 1.2918,-1.05589 3.2223,-3.86083 4.29,-2.57872 1.2485,1.4993 -1.7391,2.29763 -3.8738,4.38799 z"
       style="fill:#333333;fill-opacity:1;stroke:none" />
    <path
       sodipodi:nodetypes="ssssssssccccssssssssssssssssacacccssssssssssssssssssssssssssccsssssssssssssssscssssazcaccssssssssssssccssssssssssssssssccssssscscs"
       style="fill:url(#linearGradient4048);fill-opacity:1"
       d="m 1140.6234,1125.543 c -8.525,-0.4446 -20,-1.5622 -25.4999,-2.4836 -5.5,-0.9214 -12.475,-2.0565 -15.5,-2.5223 -3.025,-0.4658 -9.1,-1.5746 -13.5,-2.4639 -4.4,-0.8893 -10.25,-2.0235 -13,-2.5205 -2.75,-0.4969 -7.7,-1.6249 -11,-2.5065 -3.3001,-0.8817 -7.1251,-1.8382 -8.5001,-2.1255 -3.5496,-0.7418 -18.7494,-5.2817 -23.5,-7.0191 -8.7858,-3.2131 -35.24382,-3.17 -34.49652,-5.2994 9.58942,-2.0997 23.85512,-2.7645 28.45972,-6.3924 1.6238,-10.4955 -21.5644,-23.0182 -22.4632,-32.0495 0,-0.8161 -0.3738,-1.7147 -0.8306,-1.9971 -0.4569,-0.2824 -1.39023,-3.0137 -2.07411,-6.0696 -1.29198,-5.7731 -0.82433,-8.7992 2.50651,-16.2189 3.4094,-7.5946 17.7112,-17.1067 31.8982,-21.2155 15.8593,-4.5931 39.0465,-6.261 81.7501,-5.8806 19.1124,0.1703 34.7499,0.01 34.7499,-0.356 0,-0.3661 -2.0035,-3.0728 -4.4523,-6.0148 -6.9632,-8.36604 -7.0159,-8.34927 26.2379,-8.34927 27.8838,0 43.3583,1.08402 57.2144,4.00799 4.125,0.87047 9.3,1.95008 11.5,2.39908 4.1747,0.8521 16.5452,4.6676 20,6.1688 1.1,0.4779 4.3585,1.7732 7.2412,2.8785 5.3881,2.0658 16.0674,7.2143 22.2588,10.731 1.925,1.0933 6.2,3.4663 9.5,5.2733 3.3,1.8069 6.4275,3.6804 6.95,4.1633 0.5225,0.4829 1.878,0.878 3.0122,0.878 1.6971,0 2.5421,-1.4604 4.7737,-8.25 4.7278,-14.3845 18.6462,-67.72624 24.8863,-102.24263 5.8871,-32.56397 11.5459,-98.19377 11.7809,-98.57405 0,0 0.2205,103.592 -10.8861,153.75829 -10.9616,49.51139 -19.1953,125.55539 -54.3143,142.10469 -32.2275,8.0654 -64.6543,8.4319 -88.2025,8.6436 -22.55,0.1941 -47.9751,-0.011 -56.5001,-0.4554 z m -66.7499,-0.6738 c 0.9625,-0.2515 2.5375,-0.2515 3.5,0 0.9625,0.2515 0.175,0.4573 -1.75,0.4573 -1.925,0 -2.7125,-0.2058 -1.75,-0.4573 z m -79.50335,-28.329 c -0.825,-0.4909 -2.94673,-7.0846 -6.24673,-8.5254 -14.93268,-6.5199 -29.04009,-13.9494 -32.60751,-17.1724 -3.02963,-2.737 -3.89249,-4.2496 -3.89249,-6.8234 0,-4.0578 5.51731,-14.623 16.42912,-31.4605 9.06579,-13.9889 8.17821,-12.5315 16.7477,-27.5 5.71676,-9.9855 13.41996,-25.12026 16.03266,-31.49996 0.5632,-1.375 1.3489,-3.175 1.7461,-4 0.3973,-0.825 1.4944,-4.2 2.4382,-7.5 0.9438,-3.3 2.1678,-7.45549 2.7202,-9.23443 0.5523,-1.77893 1.4224,-7.276 1.9334,-12.2157 0.9814,-9.4859 0.1798,-14.04987 -2.4678,-14.04987 -2.45,0 -25.33169,-11.85203 -37.7956,-19.57697 -20.70759,-12.83424 -41.51035,-30.69878 -54.5808,-46.8717 -3.13427,-3.87823 -5.94112,-7.27633 -6.23746,-7.55133 -0.87276,-0.80993 -11.49236,-17.18916 -13.61551,-21 -1.07248,-1.925 -2.7297,-6.2 -3.68271,-9.5 -0.95301,-3.3 -2.16807,-7.38195 -2.70012,-9.071 -1.50356,-4.77314 -1.15183,-17.53138 0.62726,-22.75272 2.07285,-6.0835 5.38926,-8.67628 11.09777,-8.67628 7.36657,0 14.24016,4.50585 33.71494,22.10117 8.55595,7.73024 12.32804,10.89883 12.97467,10.89883 1.5231,-5.95385 -3.6682,-11.21206 -5.38202,-17.37921 0,-0.31731 -1.575,-3.941 -3.5,-8.05263 -1.925,-4.11163 -3.5,-8.0815 -3.5,-8.82192 0,-0.74043 -0.39559,-1.77374 -0.8791,-2.29625 -1.13868,-1.23051 -11.5055,-33.28106 -13.08365,-40.45 -0.66591,-3.025 -1.62171,-7.12721 -2.124,-9.11602 -1.51228,-5.98787 -1.11594,-22.15462 0.64654,-26.37284 5.19778,-12.44003 17.2915,-12.82023 33.28512,-1.04639 6.15118,4.52823 11.27306,9.44445 30.02578,28.82008 5.70387,5.89334 10.76637,10.71517 11.25,10.71517 1.11887,0 1.08043,-1.50258 -0.16631,-6.5 -0.54885,-2.2 -1.23284,-6.7 -1.51998,-10 -0.28714,-3.3 -0.95234,-9.0112 -1.47823,-12.69155 -2.00583,-14.03741 -0.0959,-36.09725 3.43052,-39.62372 1.37641,-1.3764 2.23219,-1.40997 6.84329,-0.26844 2.8985,0.71758 6.2335,1.90823 7.4111,2.64589 3.3298,2.08578 11.0434,14.3843 19.3164,30.79778 4.1514,8.23636 8.0474,15.14167 8.6578,15.34513 0.6257,0.20857 2.1059,-2.80896 3.3933,-6.91758 3.2711,-10.43956 8.7185,-20.47751 12.8035,-23.59335 4.9123,-3.74677 14.1457,-3.85086 18.9947,-0.21414 6.6803,5.01006 8.1816,8.11148 9.9227,20.49892 1.3841,9.84691 0.036,26.14724 1.356,39.1323 2.0235,19.91347 5.4157,43.13691 10.0346,59.20369 4.6189,16.06678 9.3389,24.07149 9.3389,24.07149 0,0 -5.5495,-0.80092 -7.2586,-2.74221 -21.7679,-24.72491 -22.9707,-82.14069 -22.932,-96.12799 0.06,-21.59841 -0.1,-23.86556 -1.9563,-27.79978 -2.4744,-5.24354 -4.8428,-7.14304 -8.9582,-7.18464 -4.6038,-0.0465 -8.865,5.18456 -10.3112,12.65802 -0.6183,3.1956 -1.7491,8.51018 -2.5128,11.81018 -0.7637,3.3 -1.9038,8.7 -2.5337,12 -1.3664,7.1591 -2.934,12.78172 -4.0811,14.63776 -1.4622,2.36592 -1.4663,2.35867 -20.1255,-35.63776 -7.1745,-14.60968 -12.321,-22.14107 -16.0081,-23.42641 -6.26962,-2.18559 -6.11316,-2.59337 -5.43942,14.17641 0.33702,8.3875 1.31282,19.3 2.16842,24.25 4.2673,24.68902 5.7265,36.66328 4.6043,37.78542 -0.8439,0.84396 -8.33694,-6.13165 -29.37378,-27.34559 -21.72585,-21.90877 -29.73505,-29.33919 -34.71805,-32.2092 -10.3189,-5.94327 -12.4558,-5.0879 -14.30839,5.72744 1.62296,34.0036 27.34599,85.27579 39.79388,112.04193 1.29416,2.75 3.01662,7.025 3.82769,9.5 0.81108,2.475 2.04509,5.74971 2.74225,7.27713 2.05444,4.50109 0.0185,5.29553 -5.57212,2.17431 -13.73254,-7.6668 -24.14731,-15.56751 -43.43677,-32.95144 -6.71317,-6.05 -14.08756,-12.05869 -16.38753,-13.35265 -2.29997,-1.29395 -4.89328,-2.98243 -5.76291,-3.75218 -0.86963,-0.76974 -1.88213,-1.09855 -2.25,-0.73069 -0.36787,0.36787 -0.66885,4.94752 -0.66885,10.17701 0,7.50191 0.53296,11.10653 2.52583,17.08333 1.38921,4.16635 2.89278,8.25018 3.34127,9.07518 8.71591,16.03303 11.13778,19.55078 22.92317,33.29584 14.94357,17.42839 36.12393,34.032 55.20973,43.27978 14.20368,6.88221 14.26817,6.90967 20.99998,8.94207 8.2834,2.50082 13.7932,5.22738 14.9567,7.40132 1.8556,3.46726 0.7325,19.26979 -2.1023,29.58099 -2.2518,8.19028 -4.0213,14.05824 -4.8248,16 -0.4553,1.1 -1.3942,3.575 -2.0865,5.5 -9.8615,24.67784 -24.6999,50.23167 -37.44308,70.58647 -4.675,7.4502 -8.5,13.9109 -8.5,14.3572 0,0.4463 -0.675,1.3716 -1.5,2.0563 -0.825,0.6847 -1.5,1.7731 -1.5,2.4187 0,1.2378 13.0491,9.954 19,12.6911 6.87613,3.1627 15.22768,6.3625 19.69198,7.5448 l 28.7543,6.7929 5.13,6.3861 c 2.5932,3.228 -39.71598,0.8108 -40.82955,0.1481 z"
       id="path4293"
       inkscape:connector-curvature="0" />
    <path
       sodipodi:nodetypes="cscsccccccscsccccccccsccsccsscsscsscccssccscsccsccscsss"
       style="fill:#c89c4a;fill-opacity:1;stroke:#000000;stroke-opacity:1"
       d="m 1215.042,1242.9127 c -1.0639,-0.6744 -1.226,-4.3747 -0.7989,-18.2347 0.2947,-9.5638 0.8374,-19.6386 1.2061,-22.3886 0.3735,-2.7863 0.1078,-8.6187 -0.6003,-13.1733 l -1.2706,-8.1732 -7.3507,-7.3018 c -2.1324,-3.1131 -12.1952,-12.1732 -12.3508,-16.0262 0,-1.4935 0.808,-1.8257 4.441,-1.8257 6.294,1.6109 13.4977,1.9233 19.0183,5.5372 6.0262,4.0895 7.2875,4.0593 11.3603,-0.2715 2.0242,-2.1523 5.6993,-7.4801 8.1669,-11.8395 3.5666,-6.3009 4.0779,-16.5865 4.0779,-16.5865 18.7671,-2.3301 26.8274,-5.1847 27.7812,-5.1979 1.1037,-0.015 -7.0676,3.6988 -15.3214,15.2274 -7.0449,10.2467 -22.6638,24.6346 -11.8583,32.0331 12.2336,6.7442 26.3657,9.0358 37.6366,17.0912 4.8926,3.5724 10.7176,12.0067 8.2922,12.0067 -5.7061,-0.473 -33.9171,-13.5959 -36.5048,-10.6085 -1.487,1.7917 -0.4479,15.9987 1.7267,23.6085 2.0656,7.2279 2.8489,27.3885 1.0408,26.7858 -10.5323,-12.2263 -10.3616,-30.8734 -21.0275,-44.4907 -1.6515,-1.99 -4.835,-1.2058 -6.9213,1.7049 -1.3782,1.9228 -1.8113,9.1059 -2.2739,13.7178 -1.7042,16.5411 -5.1278,31.8947 -8.4695,28.4055 z M 1003.3,1207.4531 c -2.7587,-3.4574 -10.10079,-19.9326 -12.49219,-28.032 -1.75782,-3.7814 -5.1958,-13.0615 -9.4102,-13.6318 -1.3445,0 -2.619,4.303 -6.5901,22.2501 -1.8123,8.1906 -3.7578,14.75 -4.3747,14.75 -0.6111,0 -2.1682,-0.7405 -3.4602,-1.6455 -2.5694,-1.7996 -2.5795,-2.904 -0.2794,-30.613 0.4455,-5.3672 0.6099,-12.5243 0.3654,-15.9045 l -0.4445,-6.1458 -8.6187,-8.8532 c -5.5496,-5.7007 -8.9056,-10.0079 -9.4246,-12.0957 -2.2326,-8.9818 -2.5998,-8.1283 3.201,-7.4412 2.8535,0.3379 7.9819,1.9825 11.3966,3.6547 3.4146,1.6721 8.261,3.3157 10.7697,3.6522 4.3676,0.586 4.7287,0.4355 8.4978,-3.542 2.1649,-2.2847 5.6039,-7.1717 7.642,-10.8601 5.8127,-10.5189 6.1125,-11.3838 4.9978,-14.4177 -0.45943,-3.1182 -4.63012,-6.9593 -4.50378,-7.1163 4.1056,-5.0104 11.61667,3.4801 19.55117,6.0588 7.291,2.3695 16.4761,2.8274 16.8117,5.6098 0.5512,4.5711 -6.4158,-4.5277 -18.558,8.0611 -13.13609,13.6194 -15.47949,16.4883 -17.43249,21.3424 -1.73591,11.5697 29.53259,23.5104 39.16619,25.3464 2.8102,0.201 11.3045,5.6369 12.4142,7.9444 2.8767,5.9818 4.6134,11.0371 4.0019,11.6487 -0.3647,0.3647 -8.6625,-2.7899 -18.4396,-7.0102 -9.777,-4.2204 -18.2919,-7.6734 -18.9219,-7.6734 -0.63,0 -1.8711,0.7258 -2.7581,1.6127 -2.3665,2.3665 -2.348,17.4604 0.4468,23.5954 2.4796,5.4431 3.7694,21.2916 1.4412,22.185 -2.2292,0.8554 -2.0616,0.947 -4.995,-2.7293 z"
       id="path4295"
       inkscape:connector-curvature="0" />
    <path
       style="fill:#ffffff;fill-opacity:1"
       d="m 1164.8282,742.65523 c -5.5166,0.68672 -10.6129,2.71443 -14.7461,4.75098 -6.0777,3.02973 -8.1274,3.8674 -14.8437,4.09375 -6.8457,0.23072 -5.0605,0.21269 -10.375,-1.96875 l -3.25,-4.53125 -3.5,7.125 c -6.3111,6.50299 -16.1532,21.23971 -20.8438,31.25 -4.4844,9.57043 -9.1283,21.70744 -14.5625,38 -1.8344,5.5 -4.6669,13.6 -6.3125,18 -1.6456,4.4 -4.1991,12.05 -5.6562,17 -1.4573,4.95 -3.2483,10.575 -4,12.5 -0.7519,1.925 -1.8431,5.75 -2.4063,8.5 -1.6463,8.03815 -3.9474,17.58203 -5.6875,23.5 -2.6948,9.16459 -3.3935,15.80969 -3.3125,31.5 0.098,19.14795 7.8125,34.28125 7.8125,34.28125 0,0 17.0074,-23.54078 28.0246,-32.77234 33.2256,-27.84052 87.3973,-38.59912 112.1004,-65.91516 6.1485,-12.08469 17.3172,-34.58497 22.375,-48.53125 2.0243,-5.58171 3.6282,-11.35039 4.5312,-17.21875 0.6314,-4.10214 1.3467,-8.35592 0.5938,-12.4375 -0.5026,-2.72477 -1.2028,-5.43439 -3.3125,-7.625 -2.0967,-2.17704 -5.3611,-2.74702 -5.7187,-5.84375 -0.3904,-3.37981 5.3704,-4.69318 8.5624,-4.5625 3.2373,0.13252 6.1285,2.82414 8.3438,5.34375 2.0148,2.2915 3.877,5.28061 4.0312,8.375 0.8553,17.16498 -10.7194,35.43403 -17.6324,48.45009 -4.8035,8.99239 -17.7294,26.97841 -24.2924,36.82458 14.0883,-11.53289 36.3281,-34.6921 42.9174,-44.54333 6.8837,-10.2913 12.5575,-22.02064 13.9137,-36.32509 -1.1584,-23.64456 -14.9681,-42.98903 -31.75,-43 -14.2495,-1.84419 -33.7084,10.72967 -43.8125,6.96875 -1.2735,-0.58023 -6.7934,-3.79688 -8.1338,-5.75294 -3.3963,-4.95663 -3.6755,-5.59634 -9.0576,-5.43554 z m -0.3086,12.21973 c 10.05,0 6.0846,9.45763 -5.2812,12.59375 -3.0251,0.83468 -6.6964,2.17089 -8.1563,2.96875 -4.1154,2.24921 -4.1978,1.85145 -0.8125,-4.5 3.6328,-6.81581 9.1148,-11.0625 14.25,-11.0625 z"
       id="path4027"
       inkscape:connector-curvature="0"
       sodipodi:nodetypes="ccscccssscccsccacscsccscaccscccccsscss" />
    <path
       sodipodi:nodetypes="ccscccssscccsccacscsccscaccscccccsscss"
       inkscape:connector-curvature="0"
       id="path6347"
       d="m 1164.8282,742.65523 c -5.5166,0.68672 -10.6129,2.71443 -14.7461,4.75098 -6.0777,3.02973 -8.1274,3.8674 -14.8437,4.09375 -6.8457,0.23072 -5.0605,0.21269 -10.375,-1.96875 l -3.25,-4.53125 -3.5,7.125 c -6.3111,6.50299 -16.1532,21.23971 -20.8438,31.25 -4.4844,9.57043 -9.1283,21.70744 -14.5625,38 -1.8344,5.5 -4.6669,13.6 -6.3125,18 -1.6456,4.4 -4.1991,12.05 -5.6562,17 -1.4573,4.95 -3.2483,10.575 -4,12.5 -0.7519,1.925 -1.8431,5.75 -2.4063,8.5 -1.6463,8.03815 -3.9474,17.58203 -5.6875,23.5 -2.6948,9.16459 -3.3935,15.80969 -3.3125,31.5 0.098,19.14795 7.8125,34.28125 7.8125,34.28125 0,0 17.0074,-23.54078 28.0246,-32.77234 33.2256,-27.84052 87.3973,-38.59912 112.1004,-65.91516 6.1485,-12.08469 17.3172,-34.58497 22.375,-48.53125 2.0243,-5.58171 3.6282,-11.35039 4.5312,-17.21875 0.6314,-4.10214 1.3467,-8.35592 0.5938,-12.4375 -0.5026,-2.72477 -1.2028,-5.43439 -3.3125,-7.625 -2.0967,-2.17704 -5.3611,-2.74702 -5.7187,-5.84375 -0.3904,-3.37981 5.3704,-4.69318 8.5624,-4.5625 3.2373,0.13252 6.1285,2.82414 8.3438,5.34375 2.0148,2.2915 3.877,5.28061 4.0312,8.375 0.8553,17.16498 -10.7194,35.43403 -17.6324,48.45009 -4.8035,8.99239 -17.7294,26.97841 -24.2924,36.82458 14.0883,-11.53289 36.3281,-34.6921 42.9174,-44.54333 6.8837,-10.2913 12.5575,-22.02064 13.9137,-36.32509 -1.1584,-23.64456 -14.9681,-42.98903 -31.75,-43 -14.2495,-1.84419 -33.7084,10.72967 -43.8125,6.96875 -1.2735,-0.58023 -6.7934,-3.79688 -8.1338,-5.75294 -3.3963,-4.95663 -3.6755,-5.59634 -9.0576,-5.43554 z m -0.3086,12.21973 c 10.05,0 6.0846,9.45763 -5.2812,12.59375 -3.0251,0.83468 -6.6964,2.17089 -8.1563,2.96875 -4.1154,2.24921 -4.1978,1.85145 -0.8125,-4.5 3.6328,-6.81581 9.1148,-11.0625 14.25,-11.0625 z"
       style="fill:url(#radialGradient4050);fill-opacity:1" />
    <path
       sodipodi:nodetypes="caacasccszcc"
       inkscape:connector-curvature="0"
       id="path4426"
       d="m 1156.6604,746.17537 c 0,0 -33.7853,30.91784 -47.5,49.09516 -11.7591,15.58539 -20.946,33.0701 -29.2991,50.71683 -9.3689,19.79275 -23.1636,61.47533 -23.1636,61.47533 0,0 6.3935,-33.71364 11.6979,-49.98135 10.3819,-31.83971 24.4588,-76.03544 39.1697,-92.51865 14.7344,-16.50971 12.916,-22.02608 12.916,-22.02608 0,0 4.1384,5.92782 5.0783,6.42913 0.94,0.50131 1.88,2.06789 7.081,2.00523 5.2011,-0.0627 18.4478,-5.65808 23.6241,-6.95563 5.1763,-1.29755 7.2376,-1.50392 7.2376,-1.50392 z"
       style="fill:url(#linearGradient4052);fill-opacity:1;stroke:none" />
  </g>
</svg>
